<svg width="175" height="32" viewBox="0 0 175 32" fill="none" xmlns="http://www.w3.org/2000/svg">
<path d="M41 18.9885L48.0533 11.6183L53.2692 17.0262L51.4614 18.9885L50.9131 18.4322L49.4017 19.9928L51.8615 22.5886H54.8843L52.0541 19.5911L53.8619 17.6597L66.5163 30.855H52.3949L41 18.9885Z" fill="black"/>
<path d="M68.3833 13.857L61.3151 21.2367L56.1141 15.8177L57.9219 13.857L58.4553 14.4282L59.9815 12.8689L57.5218 10.2597H54.4989L57.3291 13.2548L55.5065 15.2001L42.8669 2H56.9735L68.3833 13.857Z" fill="url(#paint0_linear_7989_747)"/>
<path d="M80.7629 15.9314L79.887 19.7339H74.4692L78.8813 3.51424C79.1084 2.63932 79.8221 2.06726 80.6656 2.06726H85.5319C86.4078 2.06726 87.1215 2.63932 87.3162 3.51424L91.7282 19.7339H86.3105L85.4345 15.9314H80.7629ZM83.7151 8.259C83.5853 7.61963 83.4556 6.87932 83.4231 6.23995H82.7419C82.677 6.87932 82.5796 7.61963 82.4499 8.259L81.6064 12.0279H84.5262L83.7151 8.259Z" fill="black"/>
<path d="M98.1194 14.4171C98.1194 14.9555 98.5087 15.3257 99.1576 15.3257H104.867L105.127 19.4647C102.596 19.8349 99.6118 19.8349 96.8218 19.8349C94.3562 19.8349 92.7665 18.186 92.7665 15.8305V2.10095H98.1194V14.4171Z" fill="black"/>
<path d="M119.271 19.4984C116.806 19.8349 113.367 19.8349 110.415 19.8349C108.079 19.8349 106.424 18.186 106.424 15.8304V6.00444C106.424 3.61523 108.079 2 110.415 2C113.334 2 116.806 2 119.271 2.33651L119.012 6.23999H112.783C112.167 6.23999 111.777 6.61015 111.777 7.14856V8.86475H118.136V12.5663H111.777V14.6863C111.777 15.2247 112.167 15.5949 112.783 15.5949H119.012L119.271 19.4984Z" fill="black"/>
<path d="M127.577 6.23999C126.896 6.23999 126.506 6.61015 126.506 7.14856V9.2349H132.605V12.9028H126.539V19.7339H121.186V6.00444C121.186 3.61523 122.873 2 125.241 2C128.063 2 131.47 2 133.806 2.37016L133.546 6.27364H127.577V6.23999Z" fill="black"/>
<path d="M74.565 27.226C74.8877 27.1879 75.2426 27.1879 75.6298 27.1879C76.501 27.1879 76.8237 27.6835 76.8237 29.094C76.8237 30.5045 76.501 31.0001 75.6298 31.0001C75.2103 31.0001 74.8554 30.9619 74.565 30.9619V27.226ZM74.8554 30.6188C75.0813 30.6188 75.3394 30.6188 75.6298 30.6188C76.2751 30.6188 76.501 30.1995 76.501 29.0558C76.501 27.9122 76.2751 27.4547 75.6298 27.4547C75.3394 27.4547 75.0813 27.4547 74.8554 27.4547V30.6188Z" fill="black"/>
<path d="M82.309 30.8852C81.8895 30.9233 81.4055 30.9233 80.9861 30.9233C80.6634 30.9233 80.4375 30.6946 80.4375 30.3133V27.8354C80.4375 27.4542 80.6634 27.2255 80.9861 27.2255C81.4378 27.2255 81.8895 27.2255 82.309 27.2636L82.2767 27.5304H81.0183C80.8247 27.5304 80.7279 27.6448 80.7279 27.9117V28.8266H82.1154V29.0934H80.7279V30.2371C80.7279 30.5039 80.8247 30.6183 81.0183 30.6183H82.2767L82.309 30.8852Z" fill="black"/>
<path d="M87.0518 30.8089C87.0195 30.8852 86.9872 30.9233 86.9227 30.9233H86.6C86.5355 30.9233 86.5032 30.8852 86.471 30.8089L85.4707 27.2255H85.7934L86.6 30.2371C86.6323 30.3896 86.6646 30.5039 86.6968 30.6564H86.8259C86.8582 30.5421 86.8904 30.3896 86.9227 30.2371L87.7294 27.2255H88.052L87.0518 30.8089Z" fill="black"/>
<path d="M93.312 30.8852C92.8926 30.9233 92.4086 30.9233 91.9891 30.9233C91.6665 30.9233 91.4406 30.6946 91.4406 30.3133V27.8354C91.4406 27.4542 91.6665 27.2255 91.9891 27.2255C92.4409 27.2255 92.8926 27.2255 93.312 27.2636L93.2798 27.5304H92.0214C91.8278 27.5304 91.731 27.6448 91.731 27.9117V28.8266H93.1185V29.0934H91.731V30.2371C91.731 30.5039 91.8278 30.6183 92.0214 30.6183H93.2798L93.312 30.8852Z" fill="black"/>
<path d="M97.1517 30.1989C97.1517 30.4657 97.2808 30.5801 97.4744 30.5801H98.636V30.8469C98.2488 30.8851 97.8293 30.8851 97.4098 30.8851C97.0226 30.8851 96.829 30.6182 96.829 30.237V27.1873H97.1194V30.1989H97.1517Z" fill="black"/>
<path d="M104.25 29.0553C104.25 30.4658 103.927 30.9614 103.056 30.9614C102.185 30.9614 101.862 30.4658 101.862 29.0553C101.862 27.6448 102.185 27.1492 103.056 27.1492C103.927 27.1492 104.25 27.6448 104.25 29.0553ZM102.153 29.0553C102.153 30.237 102.379 30.6564 103.056 30.6564C103.734 30.6564 103.96 30.237 103.96 29.0553C103.96 27.8735 103.734 27.4541 103.056 27.4541C102.379 27.4541 102.153 27.8735 102.153 29.0553Z" fill="black"/>
<path d="M107.864 27.2254C108.187 27.1873 108.413 27.1873 108.897 27.1873C109.607 27.1873 109.865 27.416 109.865 28.3309C109.865 29.2077 109.607 29.4746 108.929 29.4746C108.606 29.4746 108.348 29.4364 108.155 29.4364V30.9613H107.864V27.2254ZM108.897 29.1315C109.381 29.1315 109.574 28.979 109.574 28.2928C109.574 27.6447 109.413 27.4541 108.897 27.4541C108.606 27.4541 108.316 27.4541 108.155 27.4541V29.0933H108.897V29.1315Z" fill="black"/>
<path d="M116.286 27.2255C116.383 27.2255 116.415 27.3017 116.415 27.378L116.544 30.9233H116.254L116.124 27.5304H116.028L115.221 30.4277C115.189 30.5039 115.156 30.5421 115.092 30.5421H114.802C114.737 30.5421 114.672 30.5039 114.672 30.4277L113.866 27.5304H113.769L113.64 30.9233H113.35L113.479 27.378C113.479 27.2636 113.511 27.2255 113.608 27.2255H113.963C114.027 27.2255 114.059 27.2636 114.092 27.3398L114.769 29.7415C114.802 29.894 114.866 30.0846 114.898 30.2371H114.995C115.027 30.0846 115.092 29.894 115.124 29.7415L115.802 27.3398C115.834 27.2636 115.866 27.2255 115.931 27.2255H116.286Z" fill="black"/>
<path d="M122.061 30.8852C121.642 30.9233 121.158 30.9233 120.738 30.9233C120.416 30.9233 120.19 30.6946 120.19 30.3133V27.8354C120.19 27.4542 120.416 27.2255 120.738 27.2255C121.19 27.2255 121.642 27.2255 122.061 27.2636L122.029 27.5304H120.771C120.577 27.5304 120.48 27.6448 120.48 27.9117V28.8266H121.868V29.0934H120.48V30.2371C120.48 30.5039 120.577 30.6183 120.771 30.6183H122.029L122.061 30.8852Z" fill="black"/>
<path d="M127.934 30.7326C127.934 30.8469 127.901 30.8851 127.804 30.8851H127.482C127.417 30.8851 127.353 30.8469 127.353 30.7707L126.159 27.9878C126.094 27.8734 126.03 27.6828 125.998 27.5304H125.901C125.901 27.6828 125.901 27.8353 125.901 27.9878V30.8851H125.61V27.3397C125.61 27.2254 125.643 27.1873 125.739 27.1873H126.062C126.127 27.1873 126.191 27.2254 126.191 27.3016L127.353 30.0464C127.417 30.1989 127.482 30.3895 127.546 30.542H127.643C127.643 30.3514 127.643 30.1989 127.643 30.0083V27.1873H127.934V30.7326Z" fill="black"/>
<path d="M132.677 27.5304V30.9233H132.387V27.5304H131.354V27.2255H133.742V27.5304H132.677Z" fill="black"/>
<path d="M134 23.9553H74.307V24.6304H134V23.9553Z" fill="black"/>
<defs>
<linearGradient id="paint0_linear_7989_747" x1="55.6209" y1="21.2336" x2="55.6209" y2="2.00392" gradientUnits="userSpaceOnUse">
<stop stop-color="#2B5972"/>
<stop offset="1" stop-color="#427FA2"/>
</linearGradient>
</defs>
</svg>
